<svg width="512" height="512" viewBox="0 0 512 512" fill="none" xmlns="http://www.w3.org/2000/svg">
  <rect width="512" height="512" rx="120" fill="#0f5541"/>
  <path d="M144 290C144 230.353 192.353 182 252 182H360C371.046 182 380 190.954 380 202V292C380 351.647 331.647 400 272 400H164C152.954 400 144 391.046 144 380V290Z" fill="#ffffff" fill-opacity="0.9"/>
  <circle cx="222" cy="256" r="52" fill="#ffb452"/>
  <path d="M218 228C226.837 238.667 230.5 253.5 230.5 265C230.5 276.5 225.5 291.5 218 302" stroke="#0f5541" stroke-width="12" stroke-linecap="round"/>
  <path d="M260 224C267.5 234 271 249.5 271 264.5C271 279.5 266.5 294.5 260 304" stroke="#0f5541" stroke-width="12" stroke-linecap="round"/>
</svg>
